# xmcd
#
# Track frame offsets:
#	150
#	17950
#	35323
#	55238
#	77868
#	96905
#	115988
#	135575
#	156180
#	175440
#	194763
#	215010
#	233860
#	252410
#	274108
#	292278
#
# Disc length: 4197 seconds
#
# Revision: 1
# Processed by: cddbd v1.5.1PL0 Copyright (c) Steve Scherf et al.
# Submitted via: CDex 1.50Beta5
#
DISCID=f9106310
DTITLE=石川さゆり - 石川さゆり大全集
DYEAR=1900
DGENRE=World
TTITLE0=港の潮暦
TTITLE1=東京かくれんぼ
TTITLE2=東京めぐり愛
TTITLE3=東京わかれ唄〜東京の空、ある限り〜
TTITLE4=春の雪
TTITLE5=波止場しぐれ
TTITLE6=ふたり傘
TTITLE7=紫陽花ばなし
TTITLE8=なごり雨
TTITLE9=大阪つばめ
TTITLE10=裏町夫婦草
TTITLE11=雨あがり
TTITLE12=デュオ雨あがり
TTITLE13=天城越え
TTITLE14=夫婦善哉
TTITLE15=帰郷
EXTD=
EXTT0=
EXTT1=
EXTT2=
EXTT3=
EXTT4=
EXTT5=
EXTT6=
EXTT7=
EXTT8=
EXTT9=
EXTT10=
EXTT11=
EXTT12=
EXTT13=
EXTT14=
EXTT15=
PLAYORDER=
